<mxfile host="app.diagrams.net" modified="2020-11-29T10:07:27.501Z" agent="5.0 (Macintosh; Intel Mac OS X 10_15_7) AppleWebKit/605.1.15 (KHTML, like Gecko) Version/14.0.1 Safari/605.1.15" etag="ESLAzZTtKn64pZ1Ym2bc" version="13.9.9" type="github">
  <diagram id="S3g1AtW_GWSsKj88Omnw" name="第 1 页">
    <mxGraphModel dx="830" dy="745" grid="1" gridSize="10" guides="1" tooltips="1" connect="1" arrows="1" fold="1" page="1" pageScale="1" pageWidth="827" pageHeight="1169" math="0" shadow="0">
      <root>
        <mxCell id="0" />
        <mxCell id="1" parent="0" />
        <mxCell id="Lg3zGEu8TLLvqU8AoGIa-34" value="&lt;font style=&quot;font-size: 18px&quot;&gt;&lt;b&gt;&amp;nbsp;-1 的二进制&lt;br&gt;（补码表示方式）&lt;/b&gt;&lt;/font&gt;" style="rounded=1;whiteSpace=wrap;html=1;fontSize=16;verticalAlign=bottom;fillColor=#f9f7ed;strokeColor=none;" vertex="1" parent="1">
          <mxGeometry x="120" y="510" width="390" height="110" as="geometry" />
        </mxCell>
        <mxCell id="Lg3zGEu8TLLvqU8AoGIa-33" value="&lt;font size=&quot;1&quot;&gt;&lt;b style=&quot;font-size: 18px&quot;&gt;&amp;nbsp;1 的二进制&lt;/b&gt;&lt;/font&gt;" style="rounded=1;whiteSpace=wrap;html=1;fontSize=16;verticalAlign=top;fillColor=#f9f7ed;strokeColor=none;" vertex="1" parent="1">
          <mxGeometry x="120" y="190" width="390" height="110" as="geometry" />
        </mxCell>
        <mxCell id="Lg3zGEu8TLLvqU8AoGIa-10" value="-1" style="rounded=0;whiteSpace=wrap;html=1;fontSize=18;fillColor=#f8cecc;strokeColor=none;" vertex="1" parent="1">
          <mxGeometry x="130" y="400" width="50" height="40" as="geometry" />
        </mxCell>
        <mxCell id="Lg3zGEu8TLLvqU8AoGIa-11" value="111111111111111111111111111111&lt;font color=&quot;#ff3399&quot;&gt;0&lt;/font&gt;" style="rounded=0;whiteSpace=wrap;html=1;fontSize=18;fillColor=#dae8fc;strokeColor=none;" vertex="1" parent="1">
          <mxGeometry x="180" y="400" width="320" height="40" as="geometry" />
        </mxCell>
        <mxCell id="Lg3zGEu8TLLvqU8AoGIa-17" value="0" style="rounded=0;whiteSpace=wrap;html=1;fontSize=18;fillColor=#f8cecc;strokeColor=none;" vertex="1" parent="1">
          <mxGeometry x="130" y="260" width="50" height="40" as="geometry" />
        </mxCell>
        <mxCell id="Lg3zGEu8TLLvqU8AoGIa-18" value="000000000000000000000000000000&lt;font color=&quot;#ff3399&quot;&gt;1&lt;/font&gt;" style="rounded=0;whiteSpace=wrap;html=1;fontSize=18;fillColor=#dae8fc;strokeColor=none;" vertex="1" parent="1">
          <mxGeometry x="180" y="260" width="320" height="40" as="geometry" />
        </mxCell>
        <mxCell id="Lg3zGEu8TLLvqU8AoGIa-19" value="符号位" style="text;html=1;align=center;verticalAlign=middle;resizable=0;points=[];autosize=1;fontSize=16;" vertex="1" parent="1">
          <mxGeometry x="130" y="210" width="60" height="20" as="geometry" />
        </mxCell>
        <mxCell id="Lg3zGEu8TLLvqU8AoGIa-21" value="" style="shape=curlyBracket;whiteSpace=wrap;html=1;rounded=1;fontSize=16;rotation=90;" vertex="1" parent="1">
          <mxGeometry x="145" y="220" width="20" height="50" as="geometry" />
        </mxCell>
        <mxCell id="Lg3zGEu8TLLvqU8AoGIa-22" value="" style="shape=curlyBracket;whiteSpace=wrap;html=1;rounded=1;fontSize=16;rotation=-90;labelBackgroundColor=#ffffff;fontColor=#FF3399;strokeColor=#FF3399;strokeWidth=2;" vertex="1" parent="1">
          <mxGeometry x="330" y="160" width="20" height="310" as="geometry" />
        </mxCell>
        <mxCell id="Lg3zGEu8TLLvqU8AoGIa-23" value="" style="shape=flexArrow;endArrow=classic;html=1;fillColor=#d5e8d4;strokeColor=none;" edge="1" parent="1">
          <mxGeometry width="50" height="50" relative="1" as="geometry">
            <mxPoint x="339.5" y="340" as="sourcePoint" />
            <mxPoint x="339.5" y="390" as="targetPoint" />
          </mxGeometry>
        </mxCell>
        <mxCell id="Lg3zGEu8TLLvqU8AoGIa-25" value="&lt;font style=&quot;font-size: 16px;&quot;&gt;取反&lt;/font&gt;" style="text;html=1;align=center;verticalAlign=middle;resizable=0;points=[];autosize=1;fontSize=16;fontStyle=1;fontColor=#FF3399;" vertex="1" parent="1">
          <mxGeometry x="355" y="340" width="50" height="20" as="geometry" />
        </mxCell>
        <mxCell id="Lg3zGEu8TLLvqU8AoGIa-28" value="-1" style="rounded=0;whiteSpace=wrap;html=1;fontSize=18;fillColor=#f8cecc;strokeColor=none;" vertex="1" parent="1">
          <mxGeometry x="130" y="510" width="50" height="40" as="geometry" />
        </mxCell>
        <mxCell id="Lg3zGEu8TLLvqU8AoGIa-29" value="111111111111111111111111111111&lt;font color=&quot;#ff3399&quot;&gt;1&lt;/font&gt;" style="rounded=0;whiteSpace=wrap;html=1;fontSize=18;fillColor=#dae8fc;strokeColor=none;" vertex="1" parent="1">
          <mxGeometry x="180" y="510" width="320" height="40" as="geometry" />
        </mxCell>
        <mxCell id="Lg3zGEu8TLLvqU8AoGIa-30" value="" style="shape=flexArrow;endArrow=classic;html=1;fillColor=#d5e8d4;strokeColor=none;" edge="1" parent="1">
          <mxGeometry width="50" height="50" relative="1" as="geometry">
            <mxPoint x="339.5" y="450" as="sourcePoint" />
            <mxPoint x="339.5" y="500" as="targetPoint" />
          </mxGeometry>
        </mxCell>
        <mxCell id="Lg3zGEu8TLLvqU8AoGIa-31" value="&lt;font style=&quot;font-size: 16px;&quot;&gt;+1&lt;/font&gt;" style="text;html=1;align=center;verticalAlign=middle;resizable=0;points=[];autosize=1;fontSize=16;fontStyle=1;fontColor=#FF3399;" vertex="1" parent="1">
          <mxGeometry x="350" y="460" width="30" height="20" as="geometry" />
        </mxCell>
      </root>
    </mxGraphModel>
  </diagram>
</mxfile>
